<svg xmlns="http://www.w3.org/2000/svg" viewBox="0 0 120 120" width="120" height="120">
  <path d="M 55 93 C 55 83, 105 73, 110 83 C 115 93, 105 108, 90 108 C 70 108, 55 103, 55 93 Z" fill="#d9c39e" stroke="#1a1a1a" stroke-width="1.5" stroke-linejoin="round"/>
  <path d="M 63 90 C 65 83, 98 77, 103 84 C 105 88, 98 98, 88 98 C 75 98, 62 95, 63 90 Z" fill="#ebdcb9" stroke="#1a1a1a" stroke-width="1" opacity="0.7"/>

  <circle cx="45" cy="63" r="33" fill="#ffffff" stroke="#1a1a1a" stroke-width="1.5" opacity="0.9"/>
  <path d="M 20 50 A 28 28 0 0 1 40 33" fill="none" stroke="#1a1a1a" stroke-width="1" stroke-linecap="round" opacity="0.4"/>
  <path d="M 23 78 A 28 28 0 0 0 33 88" fill="none" stroke="#1a1a1a" stroke-width="1" stroke-linecap="round" opacity="0.4"/>
  
  <path d="M 14 65 C 20 60, 35 70, 50 55 C 65 43, 74 55, 75 60 A 31 31 0 0 1 14 65 Z" fill="#cfae70" stroke="#1a1a1a" stroke-width="1.2" stroke-linejoin="round"/>
  
  <path d="M 30 93 L 60 93 L 57 97 L 33 97 Z" fill="#dcdcdc" stroke="#1a1a1a" stroke-width="1.5" stroke-linejoin="round"/>

  <rect x="39" y="24" width="12" height="7" fill="#bfa15f" stroke="#1a1a1a" stroke-width="1.5" stroke-linejoin="round"/>
  <path d="M 41 18 L 49 18 L 49 24 L 41 24 Z" fill="#bfa15f" stroke="#1a1a1a" stroke-width="1.5" stroke-linejoin="round"/>
  <rect x="36" y="20" width="3" height="3" fill="#bfa15f" stroke="#1a1a1a" stroke-width="1.2"/>

  <line x1="45" y1="29" x2="45" y2="90" stroke="#1a1a1a" stroke-width="1.5" stroke-linecap="round" opacity="0.7"/>

  <path d="M 49 21 C 65 10, 75 35, 78 35" fill="none" stroke="#1a1a1a" stroke-width="1.2" stroke-linecap="round"/>
  <circle cx="83" cy="37" r="6" fill="#bfa15f" stroke="#1a1a1a" stroke-width="1.5"/>
  <path d="M 87 34 C 91 35, 91 39, 87 40" fill="none" stroke="#1a1a1a" stroke-width="1"/>
</svg>
