<svg xmlns="http://www.w3.org/2000/svg" viewBox="0 0 200 300" width="200" height="300">
  <path d="M 82 265 C 82 272, 72 275, 78 278 C 85 280, 95 275, 93 265 Z" fill="#ebdcb9" stroke="#2c3e50" stroke-width="1.5" stroke-linejoin="round"/>
  <path d="M 118 265 C 118 272, 128 275, 122 278 C 115 280, 105 275, 107 265 Z" fill="#ebdcb9" stroke="#2c3e50" stroke-width="1.5" stroke-linejoin="round"/>
  
  <path d="M 77 95 C 70 110, 68 135, 71 160 C 72 165, 77 180, 75 185 C 73 188, 68 185, 68 175 C 65 150, 68 120, 74 95 Z" fill="#ebdcb9" stroke="#2c3e50" stroke-width="1.5" stroke-linejoin="round"/>
  
  <path d="M 90 65 C 85 70, 77 80, 77 95 L 87 105 C 92 85, 95 72, 90 65 Z" fill="#ebdcb9" stroke="#2c3e50" stroke-width="1.5" stroke-linejoin="round"/>

  <path d="M 90 40 C 90 30, 110 30, 110 40 C 110 50, 105 58, 100 58 C 95 58, 90 50, 90 40 Z" fill="#ebdcb9" stroke="#2c3e50" stroke-width="1.5"/>
  <path d="M 90 40 C 86 35, 95 23, 105 23 C 112 23, 114 32, 110 40 C 112 48, 108 58, 100 62 C 92 58, 88 48, 90 40 Z" fill="#34495e" stroke="#2c3e50" stroke-width="1.5" opacity="0.95"/>
  <path d="M 93 41 C 93 36, 107 36, 107 41 C 107 46, 103 51, 100 51 C 97 51, 93 46, 93 41 Z" fill="#ebdcb9"/>

  <path d="M 78 185 L 122 185 L 125 250 C 110 255, 90 255, 75 250 Z" fill="#ffffff" stroke="#2c3e50" stroke-width="1.7" stroke-linejoin="round"/>
  <path d="M 88 185 L 86 248" fill="none" stroke="#bdc3c7" stroke-width="1.2"/>
  <path d="M 100 185 L 102 250" fill="none" stroke="#bdc3c7" stroke-width="1.2"/>
  <path d="M 112 185 L 115 247" fill="none" stroke="#bdc3c7" stroke-width="1.2"/>

  <path d="M 82 95 C 95 75, 110 60, 115 63 C 125 65, 135 90, 133 130 C 130 170, 123 190, 120 205 C 115 210, 85 210, 78 200 C 78 180, 83 150, 85 130 C 87 115, 80 105, 82 95 Z" fill="#ffffff" stroke="#2c3e50" stroke-width="1.7" stroke-linejoin="round"/>
  
  <path d="M 82 95 C 95 105, 115 135, 120 202" fill="none" stroke="#bdc3c7" stroke-width="1.5"/>
  <path d="M 85 120 C 95 130, 110 155, 125 180" fill="none" stroke="#bdc3c7" stroke-width="1.2"/>
  <path d="M 86 145 C 93 155, 105 175, 113 198" fill="none" stroke="#bdc3c7" stroke-width="1.2"/>
  <path d="M 86 170 C 90 175, 98 185, 103 200" fill="none" stroke="#bdc3c7" stroke-width="1"/>

  <path d="M 118 165 C 120 162, 126 162, 127 167 C 126 172, 120 176, 117 172 Z" fill="#ebdcb9" stroke="#2c3e50" stroke-width="1.2"/>
</svg>
