<svg xmlns="http://www.w3.org/2000/svg" viewBox="0 0 150 150" width="150" height="150">
  <g stroke="#1a1a1a" stroke-width="1.5" stroke-linecap="round">
    <line x1="45" y1="20" x2="105" y2="20" />
    <line x1="35" y1="26" x2="115" y2="26" />
    <line x1="40" y1="32" x2="110" y2="32" />
    <line x1="55" y1="38" x2="95" y2="38" />
  </g>

  <g id="left-pilgrim">
    <path d="M 33 80 C 25 70, 18 60, 18 55 C 21 53, 25 57, 28 65 C 31 72, 35 80, 37 85" fill="#ebdcb9" stroke="#1a1a1a" stroke-width="1.5" stroke-linejoin="round"/>
    <circle cx="36" cy="74" r="7" fill="#ebdcb9" stroke="#1a1a1a" stroke-width="1.5"/>
    <path d="M 27 94 C 27 88, 33 85, 41 85 C 48 85, 52 92, 51 115 L 23 115 C 23 105, 27 98, 27 94 Z" fill="#ffffff" stroke="#1a1a1a" stroke-width="1.5" stroke-linejoin="round"/>
    <path d="M 27 94 C 33 97, 42 95, 51 115" fill="none" stroke="#bdc3c7" stroke-width="1"/>
  </g>

  <g id="middle-pilgrim">
    <path d="M 58 83 C 50 70, 42 55, 43 51 C 46 49, 50 54, 55 65 C 58 72, 61 80, 63 86" fill="#ebdcb9" stroke="#1a1a1a" stroke-width="1.5" stroke-linejoin="round"/>
    <path d="M 78 86 C 80 80, 83 72, 86 65 C 91 54, 95 49, 98 51 C 99 55, 91 70, 83 83" fill="#ebdcb9" stroke="#1a1a1a" stroke-width="1.5" stroke-linejoin="round"/>
    <path d="M 64 73 C 64 65, 76 65, 76 73 C 76 81, 74 86, 70 86 C 66 86, 64 81, 64 73 Z" fill="#34495e" stroke="#1a1a1a" stroke-width="1.5"/>
    <circle cx="70" cy="71" r="5" fill="#ebdcb9"/>
    <path d="M 57 95 C 57 88, 65 87, 73 87 C 81 87, 84 92, 83 122 L 53 122 C 53 110, 57 102, 57 95 Z" fill="#ffffff" stroke="#1a1a1a" stroke-width="1.5" stroke-linejoin="round"/>
    <path d="M 54 98 C 58 92, 63 90, 63 95 Z" fill="#ebdcb9"/>
    <path d="M 57 95 C 65 98, 74 96, 83 122" fill="none" stroke="#bdc3c7" stroke-width="1.2"/>
    <path d="M 63 105 C 70 108, 77 108, 83 115" fill="none" stroke="#bdc3c7" stroke-width="1"/>
  </g>

  <g id="right-pilgrim">
    <path d="M 104 85 C 106 80, 110 72, 113 65 C 116 57, 120 53, 123 55 C 123 60, 116 70, 108 80" fill="#ebdcb9" stroke="#1a1a1a" stroke-width="1.5" stroke-linejoin="round"/>
    <path d="M 94 74 C 94 67, 104 67, 104 74 C 104 80, 102 84, 99 84 C 96 84, 94 80, 94 74 Z" fill="#34495e" stroke="#1a1a1a" stroke-width="1.5"/>
    <circle cx="99" cy="73" r="4.5" fill="#ebdcb9"/>
    <path d="M 89 115 L 89 94 C 89 90, 95 86, 103 86 C 110 86, 114 90, 114 100 L 114 115 Z" fill="#ffffff" stroke="#1a1a1a" stroke-width="1.5" stroke-linejoin="round"/>
    <path d="M 91 95 C 98 97, 106 95, 114 112" fill="none" stroke="#bdc3c7" stroke-width="1"/>
  </g>
</svg>
