<svg xmlns="http://www.w3.org/2000/svg" viewBox="0 0 150 150" width="150" height="150">
  <rect x="2" y="2" width="146" height="146" rx="16" fill="#e2d2b5" />
  <rect x="6" y="6" width="138" height="138" rx="12" fill="#d0e4f7" />

  <path d="M 6 82 C 40 70, 100 80, 144 75 L 144 144 L 6 144 Z" fill="#dfca9e" stroke="#1a1a1a" stroke-width="1.2" />
  <path d="M 6 102 C 50 100, 90 105, 144 98 L 144 144 L 6 144 Z" fill="#ebdcb9" stroke="#1a1a1a" stroke-width="1.2" />

  <g id="sun">
    <circle cx="36" cy="36" r="14" fill="#fbdc70" stroke="#1a1a1a" stroke-width="1.2" />
    <g stroke="#1a1a1a" stroke-width="1.2" stroke-linecap="round">
      <line x1="36" y1="16" x2="36" y2="19" />
      <line x1="36" y1="53" x2="36" y2="56" />
      <line x1="16" y1="36" x2="19" y2="36" />
      <line x1="53" y1="36" x2="56" y2="36" />
      <line x1="22" y1="22" x2="25" y2="25" />
      <line x1="47" y1="47" x2="50" y2="50" />
      <line x1="22" y1="47" x2="25" y2="44" />
      <line x1="47" y1="22" x2="50" y2="25" />
    </g>
  </g>

  <g id="clock-1" transform="translate(82, 54)">
    <circle cx="0" cy="0" r="10" fill="#ffffff" stroke="#1a1a1a" stroke-width="1.2" />
    <line x1="0" y1="0" x2="0" y2="-6" stroke="#1a1a1a" stroke-width="1.2" stroke-linecap="round" />
    <line x1="0" y1="0" x2="4" y2="3" stroke="#1a1a1a" stroke-width="1" stroke-linecap="round" />
  </g>
  <g id="clock-2" transform="translate(112, 54)">
    <circle cx="0" cy="0" r="10" fill="#ffffff" stroke="#1a1a1a" stroke-width="1.2" />
    <path d="M 0 -10 A 10 10 0 0 1 6 8 L 0 0 Z" fill="#f4cc70" opacity="0.7" />
    <circle cx="0" cy="0" r="10" fill="none" stroke="#1a1a1a" stroke-width="1.2" />
    <line x1="0" y1="0" x2="0" y2="-7" stroke="#1a1a1a" stroke-width="1.2" stroke-linecap="round" />
    <line x1="0" y1="0" x2="6" y2="4" stroke="#1a1a1a" stroke-width="1.2" stroke-linecap="round" />
  </g>

  <g id="distant-pilgrims" fill="#ffffff" stroke="#1a1a1a" stroke-width="1">
    <path d="M 16 80 C 16 75, 20 75, 20 80 Z" /> <circle cx="18" cy="74" r="1.5" fill="#ebdcb9" stroke="#1a1a1a" stroke-width="0.8" />
    <path d="M 28 85 C 28 78, 33 78, 33 85 Z" /> <circle cx="30.5" cy="77" r="1.8" fill="#ebdcb9" stroke="#1a1a1a" stroke-width="0.8" />
    <path d="M 44 82 C 44 77, 48 77, 48 82 Z" /> <circle cx="46" cy="76" r="1.5" fill="#ebdcb9" stroke="#1a1a1a" stroke-width="0.8" />
    <path d="M 25 105 C 25 95, 32 95, 32 105 Z" fill="#ffffff" stroke-width="1.2" /> 
    <circle cx="28.5" cy="93" r="2.5" fill="#ebdcb9" stroke="#1a1a1a" stroke-width="1" />
  </g>

  <g id="green-mat" transform="translate(72, 85)">
    <polygon points="0,15 18,15 22,35 4,35" fill="#558b6e" stroke="#1a1a1a" stroke-width="1.2" stroke-linejoin="round" />
    <path d="M 4,20 L 18,20 M 6,28 L 20,28" stroke="#3b634e" stroke-width="0.8" />
  </g>
  <g id="red-mat" transform="translate(98, 105)">
    <polygon points="0,15 22,15 26,38 4,38" fill="#9e4747" stroke="#1a1a1a" stroke-width="1.2" stroke-linejoin="round" />
    <path d="M 6,32 L 6,20 C 6,17, 18,17, 18,20 L 18,32" fill="none" stroke="#be7373" stroke-width="1" />
  </g>
</svg>
