<svg xmlns="http://www.w3.org/2000/svg" viewBox="0 0 150 150" width="150" height="150">
  <rect x="5" y="5" width="140" height="140" rx="15" ry="15" fill="#fdf2e9" stroke="#b6a48f" stroke-width="1"/>
  
  <rect x="10" y="10" width="130" height="75" rx="10" ry="10" fill="#313f52" stroke="#1a1a1a" stroke-width="0.8"/>
  <rect x="10" y="75" width="130" height="55" rx="5" ry="5" fill="#e8d5b1" stroke="#1a1a1a" stroke-width="0.8"/>
  
  <path d="M10 70 Q 75 40 140 70 L 140 75 L 10 75 Z" fill="#4d5c6e" stroke="#1a1a1a" stroke-width="0.8"/>

  <path d="M15 85 Q 30 65 50 80 Q 55 90 40 100 L 12 100 Z" fill="#8c7a6e" stroke="#1a1a1a" stroke-width="0.8"/>
  <path d="M18 95 L 25 90 L 30 100 Z" fill="#a69383" stroke="#1a1a1a" stroke-width="0.6"/>
  <path d="M42 90 L 48 95 L 40 100 Z" fill="#78665a" stroke="#1a1a1a" stroke-width="0.6"/>
  <path d="M10 95 L 18 100 L 10 105 Z" fill="#6e5d51" stroke="#1a1a1a" stroke-width="0.6"/>
  <path d="M50 85 L 56 90 L 52 95 Z" fill="#615248" stroke="#1a1a1a" stroke-width="0.6"/>

  <path d="M95 85 Q 110 60 135 75 Q 140 85 130 100 L 90 100 Z" fill="#7c6e5f" stroke="#1a1a1a" stroke-width="0.8"/>
  <path d="M130 85 L 138 90 L 134 100 Z" fill="#6a5d4e" stroke="#1a1a1a" stroke-width="0.6"/>

  <g transform="translate(68, 65)">
    <circle cx="0" cy="0" r="1.5" fill="#e8d5b1"/>
    <path d="M-1 2 C -1 2, -2 8, -1 12 L 1 12 C 2 8, 1 2, 1 2 Z" fill="#ffffff" stroke="#1a1a1a" stroke-width="0.6"/>
  </g>

  <g transform="translate(85, 105)">
    <circle cx="0" cy="0" r="2.5" fill="#e8d5b1" stroke="#1a1a1a" stroke-width="0.8"/>
    <path d="M-3 4 C -3 4, -5 20, -3 28 L 3 28 C 5 20, 3 4, 3 4 Z" fill="#ffffff" stroke="#1a1a1a" stroke-width="0.8"/>
  </g>

  <g transform="translate(100, 110)" fill="#ffffff" stroke="#1a1a1a" stroke-width="0.8">
    <path d="M0 0 L 15 -10 L 30 0 L 0 0 Z" fill="#ffffff"/>
    <rect x="0" y="0" width="30" height="20" fill="#ffffff"/>
    <line x1="5" y1="0" x2="5" y2="20"/>
    <line x1="10" y1="0" x2="10" y2="20"/>
    <line x1="15" y1="0" x2="15" y2="20"/>
    <line x1="20" y1="0" x2="20" y2="20"/>
    <line x1="25" y1="0" x2="25" y2="20"/>
    <path d="M10 20 A 5 5 0 0 1 20 20 Z" fill="#e8d5b1"/>
  </g>
</svg>
