<svg xmlns="http://www.w3.org/2000/svg" viewBox="0 0 200 200" width="100%" height="100%">
  <defs>
    <linearGradient id="moonStarsGradient" x1="0%" y1="0%" x2="0%" y2="100%">
      <stop offset="0%" stop-color="#b6009b" />
      <stop offset="100%" stop-color="#540046" />
    </linearGradient>
  </defs>

  <rect width="200" height="200" rx="45" fill="url(#moonStarsGradient)" />

  <g fill="none" stroke="#ff9ee6" stroke-linecap="round" stroke-linejoin="round" transform="translate(1, 32.5)">

    <path d="M 112 110 A 46 46 0 1 1 82 28 A 38 38 0 0 0 112 110 Z" stroke-width="6" />

    <path d="M 98 60 Q 98 68 106 68 Q 98 68 98 76 Q 98 68 90 68 Q 98 68 98 60 Z" fill="#ff9ee6" stroke-width="1" />

    <path d="M 110 37 Q 110 43 116 43 Q 110 43 110 49 Q 110 43 104 43 Q 110 43 110 37 Z" fill="#ff9ee6" stroke-width="1" />

    <path d="M 94 25 Q 94 29 98 29 Q 94 29 94 33 Q 94 29 90 29 Q 94 29 94 25 Z" fill="#ff9ee6" stroke-width="1" />

  </g>
</svg>
