<svg xmlns="http://www.w3.org/2000/svg" viewBox="0 0 200 200" width="100%" height="100%">
  <defs>
    <linearGradient id="purpleGradient" x1="0%" y1="0%" x2="0%" y2="100%">
      <stop offset="0%" stop-color="#4A1271" />
      <stop offset="100%" stop-color="#120224" />
    </linearGradient>
  </defs>

  <rect width="200" height="200" rx="45" fill="url(#purpleGradient)" />

  <g stroke="#DDB7FF" stroke-width="4" stroke-linecap="round" opacity="0.6" fill="none">
    <line x1="25" y1="55" x2="60" y2="55" />
    <line x1="15" y1="72" x2="45" y2="72" />
    <line x1="30" y1="89" x2="55" y2="89" />

    <line x1="115" y1="40" x2="150" y2="40" />
    <line x1="105" y1="65" x2="145" y2="65" />
    <line x1="125" y1="90" x2="170" y2="90" />
  </g>

  <g stroke="#DDB7FF" stroke-width="4.5" stroke-linecap="round" fill="none">
    <path d="M 65,116 C 48,72 75,32 125,32 C 95,58 90,92 130,116" />
    <path d="M 76,106 C 68,88 74,74 86,65" opacity="0.8" />
  </g>

  <g stroke="#DDB7FF" stroke-width="4.5" stroke-linecap="round" fill="none">
    <line x1="15" y1="116" x2="185" y2="116" />
    <line x1="15" y1="124" x2="185" y2="124" />
  </g>

  <g stroke="#DDB7FF" stroke-width="4" stroke-linecap="round" opacity="0.75" fill="none">
    <line x1="30" y1="138" x2="65" y2="138" />
    <line x1="85" y1="138" x2="125" y2="138" />
    <line x1="145" y1="138" x2="175" y2="138" />

    <line x1="50" y1="152" x2="85" y2="152" />
    <line x1="105" y1="152" x2="150" y2="152" />

    <line x1="40" y1="166" x2="70" y2="166" />
    <line x1="90" y1="166" x2="120" y2="166" />
    <line x1="135" y1="166" x2="160" y2="166" />

    <line x1="75" y1="180" x2="125" y2="180" />
  </g>
</svg>
