<svg xmlns="http://www.w3.org/2000/svg" viewBox="0 0 200 200" width="100%" height="100%">
  <defs>
    <linearGradient id="skyGradient" x1="0%" y1="0%" x2="0%" y2="100%">
      <stop offset="0%" stop-color="#00aed9" />
      <stop offset="60%" stop-color="#008cb7" />
      <stop offset="100%" stop-color="#006385" />
    </linearGradient>
  </defs>

  <rect width="200" height="200" rx="45" fill="url(#skyGradient)" />

  <g transform="translate(32.5, 18)" fill="none" stroke="#26e6ff" stroke-width="3" stroke-linecap="round" stroke-linejoin="round">

    <line x1="10" y1="110" x2="125" y2="110" />

    <path d="M 42 110 A 25 25 0 0 1 93 110" />

    <path d="M 32 110 A 35 35 0 0 1 103 110" />

    <line x1="67.5" y1="32" x2="67.5" y2="52" />
    <line x1="43" y1="46" x2="49" y2="60" />
    <line x1="25" y1="68" x2="36" y2="76" />
    <line x1="17" y1="95" x2="29" y2="95" />

    <line x1="92" y1="46" x2="86" y2="60" />
    <line x1="110" y1="68" x2="99" y2="76" />
    <line x1="118" y1="95" x2="106" y2="95" />

    <line x1="20" y1="120" x2="45" y2="120" />
    <line x1="55" y1="120" x2="80" y2="120" />
    <line x1="90" y1="120" x2="115" y2="120" />

    <line x1="35" y1="132" x2="60" y2="132" />
    <line x1="75" y1="132" x2="100" y2="132" />
  </g>
</svg>
