<svg xmlns="http://www.w3.org/2000/svg" viewBox="0 0 1000 1000">
    <rect width="1000" height="1000" fill="none"/>

    <circle cx="500" cy="500" r="460" fill="#114B3E" stroke="#cfc9a6" stroke-width="8"/>
    <circle cx="500" cy="500" r="390" fill="none" stroke="#cfc9a5" stroke-width="6"/>
    <circle cx="500" cy="500" r="210" fill="none" stroke="#e8e2c5" stroke-width="5"/>

    <g transform="translate(500,500)" fill="none" stroke="#e8e2c5" stroke-width="6">
        <g transform="rotate(0)">
            <path d="M0,-60 C40,-120 90,-180 0,-300 C-90,-180 -40,-120 0,-60 Z"/>
            <path d="M0,-80 C20,-130 30,-190 0,-250 C-30,-190 -20,-130 0,-80 Z"/>
        </g>

        <g transform="rotate(45)">
            <path d="M0,-60 C40,-120 90,-180 0,-300 C-90,-180 -40,-120 0,-60 Z"/>
            <path d="M0,-80 C20,-130 30,-190 0,-250 C-30,-190 -20,-130 0,-80 Z"/>
        </g>

        <g transform="rotate(90)">
            <path d="M0,-60 C40,-120 90,-180 0,-300 C-90,-180 -40,-120 0,-60 Z"/>
            <path d="M0,-80 C20,-130 30,-190 0,-250 C-30,-190 -20,-130 0,-80 Z"/>
        </g>

        <g transform="rotate(135)">
            <path d="M0,-60 C40,-120 90,-180 0,-300 C-90,-180 -40,-120 0,-60 Z"/>
            <path d="M0,-80 C20,-130 30,-190 0,-250 C-30,-190 -20,-130 0,-80 Z"/>
        </g>

        <g transform="rotate(180)">
            <path d="M0,-60 C40,-120 90,-180 0,-300 C-90,-180 -40,-120 0,-60 Z"/>
            <path d="M0,-80 C20,-130 30,-190 0,-250 C-30,-190 -20,-130 0,-80 Z"/>
        </g>

        <g transform="rotate(225)">
            <path d="M0,-60 C40,-120 90,-180 0,-300 C-90,-180 -40,-120 0,-60 Z"/>
            <path d="M0,-80 C20,-130 30,-190 0,-250 C-30,-190 -20,-130 0,-80 Z"/>
        </g>

        <g transform="rotate(270)">
            <path d="M0,-60 C40,-120 90,-180 0,-300 C-90,-180 -40,-120 0,-60 Z"/>
            <path d="M0,-80 C20,-130 30,-190 0,-250 C-30,-190 -20,-130 0,-80 Z"/>
        </g>

        <g transform="rotate(315)">
            <path d="M0,-60 C40,-120 90,-180 0,-300 C-90,-180 -40,-120 0,-60 Z"/>
            <path d="M0,-80 C20,-130 30,-190 0,-250 C-30,-190 -20,-130 0,-80 Z"/>
        </g>
    </g>

    <circle cx="500" cy="500" r="40" fill="#e8e2c5"/>
    <circle cx="500" cy="500" r="22" fill="#0b5d46"/>
</svg>