<svg xmlns="http://www.w3.org/2000/svg" viewBox="0 0 500 500" width="100%" height="100%">
  <rect width="100%" height="100%" fill="none" />

  <g transform="translate(250, 250)">
    <path d="M -160,-20 C -220,-20 -220,100 0,100 C 130,100 210,40 210,-20" fill="none" stroke="#2C3E42" stroke-width="12" stroke-linecap="round" />
    
    <path d="M -210,10 C -200,80 -100,140 50,140 C 120,140 180,100 200,60 C 150,110 70,125 10,125 C -80,125 -160,80 -175,30 Z" fill="#D4B26F" />
    <path d="M 50,140 C 90,140 130,100 160,60 C 120,100 80,120 40,120 Z" fill="#B8934B" />

    <g transform="translate(0, -30)">
      <polygon points="0,90 -120,20 -120,-100 0,-30" fill="#243336" />
      
      <polygon points="0,90 120,20 120,-100 0,-30" fill="#2C3E42" />
      
      <polygon points="0,-30 -120,-100 0,-170 120,-100" fill="#2C3E42" />
      <polygon points="0,-42 -100,-100 0,-158 100,-100" fill="#FFFFFF" />

      <polygon points="0,-10 -120,-80 -120,-60 0,10" fill="#C5A059" />
      <polygon points="0,-10 120,-80 120,-60 0,10" fill="#D4B26F" />
      
      <polygon points="25,-15 55,-32 55,30 25,48" fill="#D4B26F" />
      <polygon points="25,-15 32,-19 32,44 25,48" fill="#B8934B" /> <path d="M 25,48 L 55,30 C 55,60 70,110 110,130 C 80,110 45,80 25,48 Z" fill="#D4B26F" />
      <path d="M 55,30 C 65,60 90,100 130,120 C 100,100 75,70 55,30 Z" fill="#E5C787" />
    </g>
  </g>
</svg>
