<svg xmlns="http://www.w3.org/2000/svg" viewBox="0 0 200 200" width="200" height="200">
  <g fill="none" stroke="#c4b28c" stroke-width="2.5" stroke-linecap="round" stroke-linejoin="round">
    <path d="M 50 115 C 55 130, 75 140, 90 140" />
    <path d="M 115 140 C 145 135, 160 110, 155 95" />
    <path d="M 152 102 L 155 95 L 162 98" stroke-width="2" />
    <path d="M 60 95 C 45 110, 45 135, 60 155" />
    <path d="M 60 148 L 60 155 L 53 153" stroke-width="2" />
  </g>
  
  <path d="M 85 136 L 90 140 L 85 144" fill="none" stroke="#c4b28c" stroke-width="2" stroke-linecap="round" stroke-linejoin="round" />

  <g id="kaaba">
    <path d="M 100 28 L 138 42 L 100 56 L 62 42 Z" fill="#eaeaea" stroke="#1a1a1a" stroke-width="1.5" stroke-linejoin="round"/>
    <path d="M 100 32 L 132 44 L 100 52 L 68 44 Z" fill="#ffffff" />

    <path d="M 62 42 L 100 56 L 100 120 L 62 102 Z" fill="#1b4d44" stroke="#1a1a1a" stroke-width="1.5" stroke-linejoin="round"/>
    <path d="M 100 56 L 138 42 L 138 102 L 100 120 Z" fill="#245d52" stroke="#1a1a1a" stroke-width="1.5" stroke-linejoin="round"/>

    <path d="M 62 55 L 100 68 L 100 76 L 62 62 Z" fill="#d4af37" stroke="#1a1a1a" stroke-width="1" />
    <path d="M 100 68 L 138 55 L 138 62 L 100 76 Z" fill="#e6ca65" stroke="#1a1a1a" stroke-width="1" />

    <path d="M 62 102 L 100 120 L 100 125 L 62 107 Z" fill="#dcdcdc" stroke="#1a1a1a" stroke-width="1.2" />
    <path d="M 100 120 L 138 102 L 138 107 L 100 125 Z" fill="#e6e6e6" stroke="#1a1a1a" stroke-width="1.2" />

    <path d="M 110 74 L 122 69 L 122 104 L 110 110 Z" fill="#d4af37" stroke="#1a1a1a" stroke-width="1.2" stroke-linejoin="round" />
    <line x1="116" y1="72" x2="116" y2="107" stroke="#1a1a1a" stroke-width="0.8" />
  </g>

  <g transform="translate(48, 65)">
    <circle cx="0" cy="0" r="3" fill="#ebdcb9" stroke="#1a1a1a" stroke-width="1.2"/>
    <path d="M -4 3 C -4 3, -6 15, -4 20 L 4 20 C 6 15, 4 3, 4 3 Z" fill="#ffffff" stroke="#1a1a1a" stroke-width="1.2"/>
  </g>

  <g transform="translate(32, 95)">
    <circle cx="0" cy="0" r="3" fill="#ebdcb9" stroke="#1a1a1a" stroke-width="1.2"/>
    <path d="M -4 3 C -5 5, -5 18, -3 22 L 3 22 C 5 18, 5 5, 4 3 Z" fill="#2d5a44" stroke="#1a1a1a" stroke-width="1.2"/>
  </g>

  <g transform="translate(56, 135)">
    <circle cx="0" cy="0" r="3" fill="#ebdcb9" stroke="#1a1a1a" stroke-width="1.2"/>
    <path d="M -4 3 C -4 3, -5 12, -3 18 L 4 18 C 5 12, 4 3, 4 3 Z" fill="#ffffff" stroke="#1a1a1a" stroke-width="1.2"/>
  </g>

  <g transform="translate(105, 140)">
    <circle cx="0" cy="0" r="3" fill="#ebdcb9" stroke="#1a1a1a" stroke-width="1.2"/>
    <path d="M -4 3 C -4 3, -5 12, -3 18 L 4 18 C 5 12, 4 3, 4 3 Z" fill="#ffffff" stroke="#1a1a1a" stroke-width="1.2"/>
  </g>

  <g transform="translate(148, 115)">
    <circle cx="0" cy="0" r="3" fill="#ebdcb9" stroke="#1a1a1a" stroke-width="1.2"/>
    <path d="M -4 3 C -4 3, -5 15, -3 20 L 4 20 C 5 15, 4 3, 4 3 Z" fill="#2d5a44" stroke="#1a1a1a" stroke-width="1.2"/>
  </g>

  <g transform="translate(150, 75)">
    <circle cx="0" cy="0" r="3" fill="#ebdcb9" stroke="#1a1a1a" stroke-width="1.2"/>
    <path d="M -4 3 C -4 3, -5 14, -3 18 L 4 18 C 5 14, 4 3, 4 3 Z" fill="#ffffff" stroke="#1a1a1a" stroke-width="1.2"/>
  </g>
</svg>
