<svg xmlns="http://www.w3.org/2000/svg" viewBox="0 0 512 512" width="100%" height="100%">
  <g id="clothing-back">
    <path d="M 270 210 C 330 220, 350 250, 360 350 L 330 450 L 250 450 Z" fill="#d1dcde" />
    <path d="M 150 315 C 150 315, 230 260, 300 215 C 300 215, 260 350, 240 450 L 140 450 Z" fill="#ffffff" />
  </g>

  <g id="body">
    <path d="M 190 220 C 140 230, 110 300, 100 370 C 95 400, 88 430, 88 450 L 122 450 C 122 430, 128 380, 132 350 C 135 330, 145 300, 145 300 Z" fill="#e5b887" />
    <path d="M 190 200 C 190 220, 180 230, 230 240 C 250 245, 260 220, 260 200 Z" fill="#e5b887" />
    <path d="M 185 130 C 185 190, 265 190, 265 130 C 265 90, 185 90, 185 130 Z" fill="#e5b887" />
  </g>

  <g id="hair-and-beard">
    <path d="M 185 130 C 170 130, 165 100, 190 70 C 220 50, 240 50, 265 70 C 290 100, 285 130, 270 130 C 275 110, 270 90, 255 85 C 240 80, 210 80, 200 85 C 185 90, 180 110, 185 130 Z" fill="#2a5c5c" />
    <path d="M 185 120 C 175 120, 175 140, 185 140 Z" fill="#e5b887" />
    <path d="M 265 120 C 275 120, 275 140, 265 140 Z" fill="#e5b887" />
    <path d="M 185 130 C 185 170, 200 200, 225 200 C 250 200, 265 170, 265 130 C 260 150, 250 165, 225 165 C 200 165, 190 150, 185 130 Z" fill="#2a5c5c" />
    <path d="M 205 150 C 215 145, 235 145, 245 150 C 250 155, 240 160, 225 160 C 210 160, 200 155, 205 150 Z" fill="#2a5c5c" />
  </g>

  <g id="clothing-front">
    <path d="M 260 200 C 240 230, 160 300, 142 320 C 140 330, 145 450, 145 450 L 220 450 C 240 350, 290 240, 290 210 Z" fill="#ffffff" />
    <path d="M 275 205 C 250 250, 210 320, 145 410" stroke="#1a3a3a" stroke-width="8" stroke-linecap="round" stroke-linejoin="round" fill="none" />
    <path d="M 290 230 C 270 280, 240 360, 210 450" stroke="#1a3a3a" stroke-width="8" stroke-linecap="round" stroke-linejoin="round" fill="none" />
  </g>

  <g id="scroll" transform="translate(20, -10)">
    <path d="M 330 380 L 430 330 C 445 322, 460 335, 450 350 L 370 415 C 360 425, 340 420, 330 405 Z" fill="#c49a55" />
    <path d="M 415 340 L 455 340 L 420 365 Z" fill="#a37c3f" />
    <ellipse cx="320" cy="390" rx="30" ry="35" fill="#c49a55" transform="rotate(-25, 320, 390)" />
    <path d="M 320 390 C 310 390, 305 380, 315 370 C 330 355, 345 375, 335 395 C 320 415, 295 395, 305 375" stroke="#1a3a3a" stroke-width="6" stroke-linecap="round" fill="none" />
  </g>

  <g id="outlines">
    <path d="M 185 125 C 185 165, 195 198, 225 198 C 255 198, 265 165, 265 125" stroke="#1a3a3a" stroke-width="8" stroke-linecap="round" stroke-linejoin="round" fill="none" />
    <path d="M 185 130 C 170 130, 165 100, 190 70 C 220 50, 240 50, 265 70 C 290 100, 285 130, 270 130" stroke="#1a3a3a" stroke-width="8" stroke-linecap="round" stroke-linejoin="round" fill="none" />
    <path d="M 202 152 C 212 147, 238 147, 248 152 C 253 158, 243 165, 225 165 C 207 165, 197 158, 202 152 Z" fill="#1a3a3a" />
    <path d="M 218 175 C 222 178, 228 178, 232 175" stroke="#1a3a3a" stroke-width="4" stroke-linecap="round" stroke-linejoin="round" fill="none" />
    <path d="M 98 450 C 98 410, 105 360, 115 330 C 125 300, 140 250, 182 235" stroke="#1a3a3a" stroke-width="8" stroke-linecap="round" stroke-linejoin="round" fill="none" />
    <path d="M 134 315 L 138 450" stroke="#1a3a3a" stroke-width="8" stroke-linecap="round" stroke-linejoin="round" fill="none" />
    <path d="M 182 235 C 210 220, 245 202, 264 200 C 265 210, 255 240, 235 280 C 200 350, 150 450, 150 450" stroke="#1a3a3a" stroke-width="8" stroke-linecap="round" stroke-linejoin="round" fill="none" />
    <path d="M 264 200 C 290 210, 345 235, 355 340 C 362 400, 362 450, 362 450" stroke="#1a3a3a" stroke-width="8" stroke-linecap="round" stroke-linejoin="round" fill="none" />
    <path d="M 350 410 L 450 345 C 458 340, 462 345, 455 352 L 375 418 C 368 424, 355 420, 350 410 Z" stroke="#1a3a3a" stroke-width="8" stroke-linecap="round" stroke-linejoin="round" fill="none" />
  </g>
</svg>
