<svg xmlns="http://www.w3.org/2000/svg" viewBox="0 0 512 512" width="100%" height="100%">
  <g id="back-blade">
    <path d="M 230 280 L 320 65 C 323 58, 327 58, 327 65 L 235 240 Z" fill="#3a7570" stroke="#192d2d" stroke-width="8" stroke-linecap="round" stroke-linejoin="round" />
  </g>

  <g id="left-handle">
    <path d="M 235 240 L 195 300 L 180 310" fill="#617b6b" stroke="#192d2d" stroke-width="8" stroke-linecap="round" stroke-linejoin="round" />
    <circle cx="150" cy="380" r="45" fill="#617b6b" stroke="#192d2d" stroke-width="8" stroke-linecap="round" stroke-linejoin="round" />
    <circle cx="150" cy="380" r="23" fill="#ffffff" />
  </g>

  <g id="front-blade">
    <path d="M 145 65 C 145 58, 149 58, 152 65 L 270 285 L 245 285 Z" fill="#cfaf63" stroke="#192d2d" stroke-width="8" stroke-linecap="round" stroke-linejoin="round" />
    <path d="M 210 240 C 210 220, 245 220, 255 250 C 260 265, 240 290, 210 270 Z" fill="#cfaf63" />
  </g>

  <g id="right-handle">
    <path d="M 255 275 C 275 315, 290 335, 315 340" fill="#cfaf63" stroke="#192d2d" stroke-width="8" stroke-linecap="round" stroke-linejoin="round" />
    <path d="M 315 340 C 355 330, 375 365, 360 410 C 345 440, 305 440, 280 410 C 265 380, 285 345, 315 340 Z" fill="#cfaf63" stroke="#192d2d" stroke-width="8" stroke-linecap="round" stroke-linejoin="round" />
    <circle cx="320" cy="385" r="23" fill="#ffffff" />
    <path d="M 355 415 C 370 435, 395 445, 410 445 C 410 445, 385 460, 360 435 Z" fill="#cfaf63" stroke="#192d2d" stroke-width="8" stroke-linecap="round" stroke-linejoin="round" />
    <circle cx="277" cy="392" r="5" fill="#cfaf63" stroke="#192d2d" stroke-width="8" stroke-linecap="round" stroke-linejoin="round" />
  </g>

  <g id="scissors-details">
    <circle cx="232" cy="260" r="12" fill="#cfaf63" stroke="#192d2d" stroke-width="8" stroke-linecap="round" stroke-linejoin="round" />
    <path d="M 224 254 L 240 266" stroke="#192d2d" stroke-width="4" stroke-linecap="round" stroke-linejoin="round" />
    <path d="M 165 95 L 215 210" stroke="#192d2d" stroke-width="4" stroke-linecap="round" stroke-linejoin="round" fill="none" />
    <circle cx="260" cy="280" r="2" fill="#ffffff" opacity="0.7" />
    <circle cx="265" cy="285" r="1.5" fill="#ffffff" opacity="0.7" />
  </g>

  <g id="hair-strand">
    <path d="M 355 85 C 425 85, 455 140, 440 210 C 420 280, 445 285, 450 270 C 405 320, 370 290, 355 250 C 335 200, 365 140, 338 120 C 365 125, 360 100, 355 85 Z" fill="#a38443" stroke="#192d2d" stroke-width="8" stroke-linecap="round" stroke-linejoin="round" />
    <path d="M 365 90 C 415 90, 445 135, 435 200 C 415 270, 430 295, 415 310 C 390 325, 365 295, 350 250 C 335 205, 355 160, 342 140 C 360 145, 370 110, 365 90 Z" fill="#cfaf63" stroke="#192d2d" stroke-width="8" stroke-linecap="round" stroke-linejoin="round" />
    
    <path d="M 370 120 C 400 130, 420 165, 415 210 C 405 260, 415 280, 400 295" stroke="#192d2d" stroke-width="4" stroke-linecap="round" stroke-linejoin="round" fill="none" />
    <path d="M 385 150 C 405 175, 400 215, 385 250" stroke="#192d2d" stroke-width="4" stroke-linecap="round" stroke-linejoin="round" fill="none" />
    <path d="M 355 180 C 375 200, 375 235, 365 265" stroke="#192d2d" stroke-width="4" stroke-linecap="round" stroke-linejoin="round" fill="none" />
  </g>
</svg>
