<svg xmlns="http://www.w3.org/2000/svg" viewBox="0 0 512 512" width="100%" height="100%">
  <g id="step-circles">
    <circle cx="90" cy="110" r="45" fill="#bfa565" stroke="#000000" stroke-width="9" />
    <path d="M 84 92 L 94 92 L 94 128 L 84 128 M 84 92 L 94 84 L 94 92" stroke="#000000" stroke-width="9" stroke-linecap="round" stroke-linejoin="round" fill="none" />

    <circle cx="260" cy="110" r="45" fill="#bfa565" stroke="#000000" stroke-width="9" />
    <path d="M 244 92 C 244 82, 276 82, 276 95 C 276 108, 244 116, 244 128 L 276 128" stroke="#000000" stroke-width="9" stroke-linecap="round" stroke-linejoin="round" fill="none" />

    <circle cx="260" cy="260" r="45" fill="#bfa565" stroke="#000000" stroke-width="9" />
    <path d="M 244 238 C 255 238, 274 240, 274 250 C 274 258, 258 260, 248 260 C 258 260, 276 262, 276 272 C 276 282, 255 284, 244 284" stroke="#000000" stroke-width="9" stroke-linecap="round" stroke-linejoin="round" fill="none" />
  </g>

  <g id="flow-paths">
    <path d="M 135 110 L 205 110" stroke="#000000" stroke-width="9" stroke-linecap="round" stroke-linejoin="round" fill="none" />
    <path d="M 190 90 L 212 110 L 190 130" stroke="#000000" stroke-width="9" stroke-linecap="round" stroke-linejoin="round" fill="none" />
    <path d="M 305 110 L 415 110 C 435 110, 445 120, 445 140 L 445 230 C 445 250, 435 260, 415 260 L 315 260" stroke="#000000" stroke-width="9" stroke-linecap="round" stroke-linejoin="round" fill="none" />
    <path d="M 333 240 L 311 260 L 333 280" stroke="#000000" stroke-width="9" stroke-linecap="round" stroke-linejoin="round" fill="none" />
    <path d="M 215 260 L 115 260 C 95 260, 85 270, 85 290 L 85 360" stroke="#000000" stroke-width="9" stroke-linecap="round" stroke-linejoin="round" fill="none" />
  </g>

  <g id="kaaba">
    <path d="M 160 370 L 220 370 L 220 430 L 160 430 Z" fill="#1e4d46" stroke="#000000" stroke-width="6" />
    <path d="M 220 370 L 240 350 L 240 410 L 220 430 Z" fill="#153631" stroke="#000000" stroke-width="6" />
    <path d="M 160 370 L 180 350 L 240 350 L 220 370 Z" fill="#2a665d" stroke="#000000" stroke-width="6" />
    <path d="M 175 360 L 225 360" stroke="#cfaf63" stroke-width="4" />
  </g>

  <g id="dots">
    <circle cx="370" cy="310" r="9" fill="#000000" />
    <circle cx="405" cy="310" r="9" fill="#000000" />
    <circle cx="440" cy="310" r="9" fill="#000000" />
  </g>
  <g id="completion-status">
    <circle cx="405" cy="410" r="42" fill="#bfa565" />
    <path d="M 383 410 L 399 428 L 427 392" stroke="#1b4d3e" stroke-width="10" stroke-linecap="round" stroke-linejoin="round" fill="none" />
  </g>
</svg>
